<?xml version="1.0" standalone="no"?><!DOCTYPE svg PUBLIC "-//W3C//DTD SVG 1.1//EN" "http://www.w3.org/Graphics/SVG/1.1/DTD/svg11.dtd"><svg t="1721145599400" class="icon" viewBox="0 0 1024 1024" version="1.1" xmlns="http://www.w3.org/2000/svg" p-id="16270" xmlns:xlink="http://www.w3.org/1999/xlink" width="200" height="200"><path d="M515.034502 957.855077c-247.926057 0-448.889579-200.963522-448.889579-448.817329 0-247.926057 200.963522-448.889579 448.889579-448.889579 247.853807 0 448.817329 200.963522 448.817329 448.889579 0 247.853807-200.963522 448.817329-448.817329 448.817329z m0-841.568617c-216.894659 0-392.751288 175.784379-392.751287 392.751288 0 216.894659 175.892754 392.679038 392.751287 392.679037s392.751288-175.784379 392.751288-392.679037c0-216.966909-175.856629-392.751288-392.751288-392.751288z m196.339519 420.784308h-296.947717l115.636209 115.56396c10.945883 11.018133 10.945883 28.719396 0 39.665279a27.93187 27.93187 0 0 1-39.665279 0l-158.697241-158.624991c-6.75538-6.75538-8.814506-16.003387-7.297255-24.637268-1.517251-8.706131 0.541875-17.990263 7.297255-24.745643l158.697241-158.624991a27.93187 27.93187 0 0 1 39.665279 0c10.945883 10.945883 10.945883 28.647146 0 39.665279l-115.636209 115.563959h296.947717c15.461511 0 28.105271 12.535384 28.105271 28.105271 0 15.533761-12.607634 28.069146-28.105271 28.069145z" fill="#707070" p-id="16271"></path></svg>