<?xml version="1.0" standalone="no"?><!DOCTYPE svg PUBLIC "-//W3C//DTD SVG 1.1//EN" "http://www.w3.org/Graphics/SVG/1.1/DTD/svg11.dtd"><svg t="1721145626576" class="icon" viewBox="0 0 1024 1024" version="1.1" xmlns="http://www.w3.org/2000/svg" p-id="17500" xmlns:xlink="http://www.w3.org/1999/xlink" width="200" height="200"><path d="M512.758626 959.986453c-247.926057 0-448.889579-200.963522-448.889579-448.817329 0-247.926057 200.963522-448.889579 448.889579-448.889578 247.853807 0 448.817329 200.963522 448.817328 448.889578 0 247.853807-200.963522 448.817329-448.817328 448.817329z m0-841.568616c-216.966909 0-392.751288 175.784379-392.751288 392.751287 0 216.894659 175.784379 392.679038 392.751288 392.679038 216.894659 0 392.679038-175.784379 392.679037-392.679038 0-216.966909-175.784379-392.751288-392.679037-392.751287z m24.673393 576.013547c-11.018133 11.018133-28.719396 11.018133-39.665279 0-11.018133-10.945883-11.018133-28.647146 0-39.665279l115.563959-115.56396h-296.947717a28.033021 28.033021 0 0 1-28.033021-28.033021c0-15.569886 12.535384-28.105271 28.033021-28.10527h296.947717l-115.563959-115.56396c-11.018133-11.018133-11.018133-28.719396 0-39.665279 10.945883-11.018133 28.647146-11.018133 39.665279 0l158.624991 158.624991c6.75538 6.75538 8.814506 16.003387 7.297255 24.745643 1.517251 8.633881-0.541875 17.881888-7.297255 24.637268l-158.624991 158.588867z" fill="#707070" p-id="17501"></path></svg>