<?xml version="1.0" standalone="no"?><!DOCTYPE svg PUBLIC "-//W3C//DTD SVG 1.1//EN" "http://www.w3.org/Graphics/SVG/1.1/DTD/svg11.dtd"><svg t="1721230080239" class="icon" viewBox="0 0 1260 1024" version="1.1" xmlns="http://www.w3.org/2000/svg" p-id="1905" xmlns:xlink="http://www.w3.org/1999/xlink" width="246.09375" height="200"><path d="M1240.301686 1024H20.008763A20.243692 20.243692 0 0 1 0.001378 1003.52V20.48C0.001378 9.156923 8.961378 0 20.008763 0h1220.292923C1251.349071 0 1260.309071 9.156923 1260.309071 20.48v983.04c0 11.323077-8.96 20.48-20.007385 20.48zM40.016148 983.04h1180.278154V40.96H40.016148v942.08z" fill="#515151" p-id="1906"></path><path d="M1240.301686 196.923077H20.008763A19.849846 19.849846 0 0 1 0.001378 177.230769c0-10.889846 8.96-19.692308 20.007385-19.692307h1220.292923C1251.349071 157.538462 1260.309071 166.340923 1260.309071 177.230769c0 10.889846-8.96 19.692308-20.007385 19.692308zM1004.309071 118.153846a19.652923 19.652923 0 0 1-13.981539-5.947077 20.086154 20.086154 0 0 1-5.710769-13.863384c0-5.159385 2.166154-10.318769 5.710769-14.08 7.286154-7.325538 20.676923-7.325538 27.963077 0 3.544615 3.761231 5.710769 8.920615 5.710769 14.08 0 5.139692-2.166154 10.299077-5.710769 14.060307-3.741538 3.564308-8.664615 5.750154-13.981538 5.750154zM1083.078302 118.153846c-5.12 0-10.24-2.185846-13.981539-5.750154a20.913231 20.913231 0 0 1-5.710769-14.060307c0-5.159385 2.166154-10.318769 5.710769-14.08 7.483077-7.325538 20.676923-7.325538 27.963077 0 3.544615 3.761231 5.710769 8.920615 5.710769 14.08 0 5.139692-2.166154 10.299077-5.710769 14.060307-3.741538 3.564308-8.664615 5.750154-13.981538 5.750154zM1161.847532 118.153846c-5.12 0-10.24-2.185846-13.981538-5.750154a20.913231 20.913231 0 0 1-5.710769-14.060307c0-5.159385 2.166154-10.318769 5.710769-14.08 7.483077-7.325538 20.676923-7.325538 27.963077 0 3.544615 3.761231 5.710769 8.920615 5.710769 14.08 0 5.139692-2.166154 10.299077-5.710769 14.060307-3.741538 3.564308-8.861538 5.750154-13.981539 5.750154z" fill="#515151" p-id="1907"></path><path d="M925.53984 196.923077a19.692308 19.692308 0 0 1-19.692308-19.692308V19.692308a19.692308 19.692308 0 1 1 39.384616 0v157.538461a19.692308 19.692308 0 0 1-19.692308 19.692308zM256.001378 610.461538H118.155225a19.692308 19.692308 0 1 1 0-39.384615h137.846153a19.692308 19.692308 0 1 1 0 39.384615z" fill="#515151" p-id="1908"></path><path d="M256.001378 768H118.155225c-10.870154 0-19.692308-9.353846-19.692308-20.932923V454.163692C98.462917 442.564923 107.285071 433.230769 118.155225 433.230769h137.846153c10.870154 0 19.692308 9.353846 19.692308 20.932923 0 11.559385-8.822154 20.913231-19.692308 20.913231H137.847532v251.076923h118.153846c10.870154 0 19.692308 9.353846 19.692308 20.932923 0 11.559385-8.822154 20.913231-19.692308 20.913231zM334.770609 768c-10.870154 0-19.692308-9.353846-19.692307-20.932923V454.163692c0-11.579077 8.822154-20.932923 19.692307-20.932923s19.692308 9.353846 19.692308 20.932923v292.923077c0 11.559385-8.822154 20.913231-19.692308 20.913231z" fill="#515151" p-id="1909"></path><path d="M403.693686 610.461538H334.770609a19.692308 19.692308 0 1 1 0-39.384615h68.923077c27.136 0 49.230769-22.075077 49.230769-49.230769S430.829686 472.615385 403.693686 472.615385H334.770609a19.692308 19.692308 0 1 1 0-39.384616h68.923077c48.856615 0 88.615385 39.758769 88.615385 88.615385S452.550302 610.461538 403.693686 610.461538z" fill="#515151" p-id="1910"></path><path d="M472.616763 748.307692a19.692308 19.692308 0 0 1-16.029538-8.251077l-98.461539-137.846153a19.692308 19.692308 0 1 1 32.059077-22.86277l98.461539 137.826462A19.692308 19.692308 0 0 1 472.616763 748.307692z" fill="#515151" p-id="1911"></path><path d="M886.155225 768h-59.076923c-32.571077 0-59.076923-28.16-59.076924-62.779077V496.009846C768.001378 461.390769 794.507225 433.230769 827.078302 433.230769h59.076923c32.571077 0 59.076923 28.16 59.076923 62.779077v209.230769C945.232148 739.84 918.726302 768 886.155225 768z m-59.076923-292.923077c-10.850462 0-19.692308 9.373538-19.692308 20.932923v209.230769c0 11.539692 8.841846 20.913231 19.692308 20.913231h59.076923c10.850462 0 19.692308-9.373538 19.692307-20.932923V496.009846c0-11.559385-8.841846-20.932923-19.692307-20.932923h-59.076923z" fill="#515151" p-id="1912"></path><path d="M1004.309071 768c-10.870154 0-19.692308-9.353846-19.692308-20.932923V454.163692c0-11.579077 8.822154-20.932923 19.692308-20.932923s19.692308 9.353846 19.692307 20.932923v292.923077c0 11.559385-8.822154 20.913231-19.692307 20.913231z" fill="#515151" p-id="1913"></path><path d="M1073.232148 610.461538H1004.309071a19.692308 19.692308 0 1 1 0-39.384615h68.923077c27.136 0 49.230769-22.075077 49.230769-49.230769S1100.368148 472.615385 1073.232148 472.615385H1004.309071a19.692308 19.692308 0 1 1 0-39.384616h68.923077c48.856615 0 88.615385 39.758769 88.615384 88.615385S1122.088763 610.461538 1073.232148 610.461538z" fill="#515151" p-id="1914"></path><path d="M1142.155225 748.307692a19.692308 19.692308 0 0 1-16.029539-8.251077l-98.461538-137.846153a19.692308 19.692308 0 1 1 32.059077-22.86277l98.461538 137.826462A19.692308 19.692308 0 0 1 1142.155225 748.307692zM551.385994 768c-10.870154 0-19.692308-9.353846-19.692308-20.932923V454.163692c0-11.579077 8.822154-20.932923 19.692308-20.932923s19.692308 9.353846 19.692308 20.932923v292.923077c0 11.559385-8.822154 20.913231-19.692308 20.913231z" fill="#515151" p-id="1915"></path><path d="M640.001378 610.461538H571.078302a19.692308 19.692308 0 1 1 0-39.384615h68.923076c27.136 0 49.230769-22.075077 49.23077-49.230769S667.137378 472.615385 640.001378 472.615385H571.078302a19.692308 19.692308 0 1 1 0-39.384616h68.923076c48.856615 0 88.615385 39.758769 88.615385 88.615385S688.857994 610.461538 640.001378 610.461538z" fill="#515151" p-id="1916"></path><path d="M708.924455 748.307692a19.692308 19.692308 0 0 1-16.029538-8.251077l-98.461539-137.846153a19.692308 19.692308 0 1 1 32.059077-22.86277l98.461539 137.826462A19.692308 19.692308 0 0 1 708.924455 748.307692z" fill="#515151" p-id="1917"></path></svg>